<svg xmlns="http://www.w3.org/2000/svg" fill="none" viewBox="-10 -5 128 42"><path fill="#002864" d="M81.06 23.973h4.6v-8.112c0-3.157 1.582-4.661 3.732-4.661 1.911 0 2.926 1.413 2.926 3.835v8.938h4.628V14.24c0-4.31-2.419-7.2-6.512-7.2-2.182 0-3.883.885-4.78 2.213V1.611h-4.6v22.362zm-9.321.443c3.343 0 6.15-1.947 7.495-4.837l-3.915-2.096c-.626 1.594-2.003 2.624-3.585 2.624-2.123 0-3.791-1.947-3.791-4.427 0-2.448 1.674-4.368 3.79-4.368 1.583 0 2.927 1.003 3.554 2.597l3.915-2.122c-1.345-2.832-4.153-4.747-7.468-4.747-4.688 0-8.365 3.776-8.365 8.645.01 4.896 3.683 8.731 8.37 8.731m-11.464-.09c.837 0 1.43-.033 1.97-.118v-3.984c-.27.032-.599.032-.896.032-2.003 0-2.867-.795-2.867-2.832v-6.048h3.645V7.392h-3.645V1.611h-4.6v5.781h-2.63v3.984h2.63v6.96c0 4.075 2.834 5.99 6.393 5.99m-15.86-.353h4.628V7.397h-4.628zm-35.932.528c4.871 0 8.273-2.832 8.273-7.05 0-3.542-2.09-5.691-5.643-6.96L9.23 9.813c-2.57-.912-3.732-1.562-3.732-3.04 0-1.386 1.555-2.122 3.256-2.122 1.583 0 2.927.56 4.034 1.594l3.105-3.184C14.04 1.2 11.556.256 8.721.256 4.061.256.686 2.853.686 7.248c0 3.216 2.003 5.37 5.853 6.699l2.03.709c2.36.827 3.343 1.77 3.343 3.099 0 1.413-1.285 2.357-3.256 2.357s-3.974-1.035-5.254-2.89L0 20.521c1.555 2.331 4.72 3.98 8.483 3.98m13.198-.528h4.6l3.046-9.408 3.197 9.408h4.569l5.524-16.576h-4.898l-3.164 10.619-3.467-10.619H27.62l-3.407 10.619-3.197-10.619h-4.93zM46.743 5.755c1.582 0 2.9-1.296 2.9-2.891 0-1.563-1.313-2.864-2.9-2.864-1.615 0-2.927 1.296-2.927 2.864 0 1.59 1.312 2.89 2.926 2.89"></path><path fill="#FA0" d="M108 27.072H92.318V31.2H108z"></path></svg>
